<svg width="36.000000" height="35.000000" viewBox="0 0 36 35" fill="none" xmlns="http://www.w3.org/2000/svg" xmlns:xlink="http://www.w3.org/1999/xlink">
<path id="path1" d="M30.76 12.41L30.74 7.46C30.74 5.85 29.04 4.43 27.1 4.43L20.31 4.43C20.32 2.09 18 1 15.15 1C12.29 1 9.99 2.09 9.99 4.37C9.99 4.39 4.58 4.43 4.58 4.43C2.64 4.43 1 5.85 1 7.46L1.07 12.22C3.89 12.25 6.17 14.08 6.17 16.34C6.17 18.6 3.89 20.42 1.07 20.45L1.07 26.09C1.07 27.7 2.64 29 4.58 29L27.1 29C29.04 29 30.82 27.7 30.82 26.09L30.8 20.62C33.27 20.37 35 18.64 35 16.51C35 14.38 33.26 12.64 30.76 12.41Z" fill="#FFFFFF" fill-opacity="1.000000" fill-rule="evenodd"/>
</svg>