{
	"asset":{
		"generator":"Khronos glTF Blender I/O v4.3.47",
		"version":"2.0"
	},
	"extensionsUsed":[
		"KHR_materials_clearcoat"
	],
	"scene":0,
	"scenes":[
		{
			"name":"Scene",
			"nodes":[
				0
			]
		}
	],
	"nodes":[
		{
			"mesh":0,
			"name":"puzzle",
			"translation":[
				-60.21714782714844,
				3.082083225250244,
				13.775186538696289
			]
		}
	],
	"materials":[
		{
			"doubleSided":true,
			"extensions":{
				"KHR_materials_clearcoat":{
					"clearcoatFactor":0.15909092128276825,
					"clearcoatRoughnessFactor":0.15272727608680725,
					"clearcoatNormalTexture":{
						"index":0
					}
				}
			},
			"name":"material_puzzle",
			"normalTexture":{
				"index":1
			},
			"pbrMetallicRoughness":{
				"baseColorFactor":[
					1,
					0.14968585968017578,
					0,
					1
				],
				"metallicFactor":0.1809091717004776,
				"roughnessFactor":0.25
			}
		}
	],
	"meshes":[
		{
			"name":"Plane.009",
			"primitives":[
				{
					"attributes":{
						"POSITION":0,
						"NORMAL":1,
						"TEXCOORD_0":2
					},
					"indices":3,
					"material":0
				}
			]
		}
	],
	"textures":[
		{
			"sampler":0,
			"source":0
		},
		{
			"sampler":0,
			"source":0
		}
	],
	"images":[
		{
			"mimeType":"image/png",
			"name":"normal_puzzle",
			"uri":"normal_puzzle.png"
		}
	],
	"accessors":[
		{
			"bufferView":0,
			"componentType":5126,
			"count":9094,
			"max":[
				3.0640223026275635,
				2.4705140590667725,
				0.25284385681152344
			],
			"min":[
				-2.608463764190674,
				-2.202284812927246,
				-0.2563314735889435
			],
			"type":"VEC3"
		},
		{
			"bufferView":1,
			"componentType":5126,
			"count":9094,
			"type":"VEC3"
		},
		{
			"bufferView":2,
			"componentType":5126,
			"count":9094,
			"type":"VEC2"
		},
		{
			"bufferView":3,
			"componentType":5123,
			"count":34752,
			"type":"SCALAR"
		}
	],
	"bufferViews":[
		{
			"buffer":0,
			"byteLength":109128,
			"byteOffset":0,
			"target":34962
		},
		{
			"buffer":0,
			"byteLength":109128,
			"byteOffset":109128,
			"target":34962
		},
		{
			"buffer":0,
			"byteLength":72752,
			"byteOffset":218256,
			"target":34962
		},
		{
			"buffer":0,
			"byteLength":69504,
			"byteOffset":291008,
			"target":34963
		}
	],
	"samplers":[
		{
			"magFilter":9729,
			"minFilter":9987
		}
	],
	"buffers":[
		{
			"byteLength":360512,
			"uri":"puzzle.bin"
		}
	]
}
